name C:\Users\u0101727\Documents\MyRepositories\upper-imu-dc\Results\main_tracking\Case_56\kinematics.mot
datacolumns 43
datarows 13
range 1.45000000 1.57000000
endheader 
time	clav_prot	clav_elev	scapula_abduction	scapula_elevation	scapula_upward_rot	scapula_winging	plane_elv	shoulder_elv	axial_rot	TrapeziusScapula_M/activation	TrapeziusScapula_S/activation	TrapeziusScapula_I/activation	TrapeziusClavicle_S/activation	SerratusAnterior_I/activation	SerratusAnterior_M/activation	SerratusAnterior_S/activation	Rhomboideus_S/activation	Rhomboideus_I/activation	LevatorScapulae/activation	Coracobrachialis/activation	DeltoideusClavicle_A/activation	DeltoideusScapula_P/activation	DeltoideusScapula_M/activation	LatissimusDorsi_S/activation	LatissimusDorsi_M/activation	LatissimusDorsi_I/activation	PectoralisMajorClavicle_S/activation	PectoralisMajorThorax_I/activation	PectoralisMajorThorax_M/activation	TeresMajor/activation	Infraspinatus_I/activation	Infraspinatus_S/activation	PectoralisMinor/activation	TeresMinor/activation	Subscapularis_S/activation	Subscapularis_M/activation	Subscapularis_I/activation	Supraspinatus_P/activation	Supraspinatus_A/activation	TRIlong/activation	BIC_long/activation	BIC_brevis/activation	
          1.45000000	        -30.24023629	         -2.62513880	        -22.81497155	         -4.58282432	         18.20841271	          2.91135483	        -28.57569193	         27.54546516	         17.23338560	          0.07305990	          0.12291267	          0.07893044	          0.08189438	          0.09381231	          0.09734288	          0.04359315	          0.06688385	          0.05266782	          0.07211911	          0.06414646	          0.05404939	          0.03419635	          0.15495382	          0.05801288	          0.05574467	          0.06716786	          0.05920262	          0.03125746	          0.06032859	          0.04283392	          0.04216827	          0.11841492	          0.03728380	          0.05024498	          0.05080543	          0.04110728	          0.04151708	          0.07166730	          0.06198236	          0.05176908	          0.07695068	          0.06737118	
          1.46000000	        -30.37389422	         -2.49606588	        -22.85314589	         -4.57974217	         18.55821416	          2.75263488	        -28.38459346	         28.06887286	         16.61774424	          0.07366249	          0.12513018	          0.07999038	          0.08177435	          0.09387177	          0.09719911	          0.04340634	          0.06727956	          0.05326743	          0.07196996	          0.06305869	          0.05372571	          0.03425424	          0.15244728	          0.05712199	          0.05335268	          0.06591891	          0.05895364	          0.03076842	          0.06105054	          0.04288230	          0.04128955	          0.11861725	          0.03977038	          0.05001577	          0.04999750	          0.04040979	          0.04140996	          0.07184075	          0.06119769	          0.05038285	          0.07648375	          0.06646818	
          1.47000000	        -30.51615729	         -2.36811878	        -22.90235142	         -4.57841995	         18.91076235	          2.59135827	        -28.19673716	         28.60087479	         16.00212450	          0.07419472	          0.12758184	          0.08089839	          0.08150949	          0.09422772	          0.09705727	          0.04333841	          0.06753050	          0.05378577	          0.07161645	          0.06194861	          0.05360083	          0.03414243	          0.14990233	          0.05632660	          0.05101077	          0.06460377	          0.05876175	          0.03066139	          0.06190106	          0.04273164	          0.03993708	          0.11925527	          0.04202864	          0.04977780	          0.04916696	          0.03968992	          0.04133298	          0.07210183	          0.06048698	          0.04873467	          0.07599289	          0.06561063	
          1.48000000	        -30.66712183	         -2.24229568	        -22.96323994	         -4.57928074	         19.26471744	          2.42807028	        -28.01151833	         29.14049984	         15.38907530	          0.07463727	          0.13024096	          0.08175700	          0.08111554	          0.09483789	          0.09692882	          0.04342591	          0.06762640	          0.05417646	          0.07110963	          0.06080854	          0.05367528	          0.03388450	          0.14735790	          0.05562668	          0.04878317	          0.06326398	          0.05862736	          0.03101061	          0.06286883	          0.04247346	          0.03824406	          0.12039798	          0.04387608	          0.04950977	          0.04835291	          0.03903663	          0.04133445	          0.07243646	          0.05986219	          0.04681990	          0.07548073	          0.06478609	
          1.49000000	        -30.82662786	         -2.11945279	        -23.03590479	         -4.58269494	         19.61902826	          2.26324205	        -27.82835292	         29.68672187	         14.78066451	          0.07493798	          0.13301404	          0.08270143	          0.08058871	          0.09566487	          0.09682470	          0.04371194	          0.06755965	          0.05443311	          0.07054979	          0.05963751	          0.05396478	          0.03354386	          0.14481824	          0.05504474	          0.04675074	          0.06195344	          0.05855298	          0.03180344	          0.06390761	          0.04220216	          0.03634141	          0.12206715	          0.04518468	          0.04919126	          0.04760194	          0.03853341	          0.04145672	          0.07282556	          0.05932717	          0.04461349	          0.07496387	          0.06398699	
          1.50000000	        -30.99432775	         -2.00028602	        -23.12001794	         -4.58896297	         19.97290221	          2.09726442	        -27.64665852	         30.23845746	         14.17844311	          0.07506540	          0.13576674	          0.08383726	          0.07991590	          0.09668034	          0.09675701	          0.04421419	          0.06735922	          0.05464105	          0.06994805	          0.05844485	          0.05447693	          0.03320720	          0.14228578	          0.05458390	          0.04497890	          0.06070869	          0.05853999	          0.03301168	          0.06493179	          0.04199688	          0.03436049	          0.12420060	          0.04584261	          0.04882742	          0.04684981	          0.03827175	          0.04173748	          0.07325804	          0.05888166	          0.04210089	          0.07445075	          0.06322158	
          1.51000000	        -31.16975427	         -1.88532349	        -23.21497047	         -4.59830361	         20.32576371	          1.93044682	        -27.46583645	         30.79456564	         13.58346301	          0.07495958	          0.13845775	          0.08522123	          0.07906456	          0.09794436	          0.09668154	          0.04491461	          0.06708020	          0.05487711	          0.06938893	          0.05722149	          0.05522390	          0.03296939	          0.13982460	          0.05424660	          0.04354684	          0.05956239	          0.05859416	          0.03461377	          0.06588503	          0.04191180	          0.03253413	          0.12663598	          0.04580803	          0.04843705	          0.04623525	          0.03826809	          0.04214023	          0.07372511	          0.05852937	          0.03936394	          0.07394082	          0.06247217	
          1.52000000	        -31.35238542	         -1.77492635	        -23.32000698	         -4.61084840	         20.67721020	          1.76301848	        -27.28525959	         31.35385629	         12.99633875	          0.07462239	          0.14104879	          0.08693432	          0.07800762	          0.09957198	          0.09657933	          0.04580625	          0.06679303	          0.05529549	          0.06895794	          0.05597594	          0.05620682	          0.03291937	          0.13748646	          0.05407119	          0.04248482	          0.05853716	          0.05871288	          0.03653591	          0.06673122	          0.04194387	          0.03092991	          0.12918764	          0.04514521	          0.04808177	          0.04574354	          0.03848907	          0.04257105	          0.07424919	          0.05827902	          0.03650626	          0.07343555	          0.06174314	
          1.53000000	        -31.54169024	         -1.66929119	        -23.43432022	         -4.62663901	         21.02698107	          1.59512912	        -27.10427760	         31.91511047	         12.41733036	          0.07414001	          0.14360457	          0.08900923	          0.07672094	          0.10177381	          0.09640034	          0.04686227	          0.06660769	          0.05605454	          0.06878666	          0.05472561	          0.05739013	          0.03311527	          0.13537069	          0.05406239	          0.04181850	          0.05763882	          0.05890726	          0.03871131	          0.06750563	          0.04202830	          0.02980717	          0.13167388	          0.04404427	          0.04777652	          0.04540390	          0.03896216	          0.04301527	          0.07482640	          0.05816904	          0.03368196	          0.07292217	          0.06105080	
          1.54000000	        -31.73715900	         -1.56846016	        -23.55711427	         -4.64563069	         21.37493131	          1.42685295	        -26.92222776	         32.47710837	         11.84644307	          0.07366535	          0.14622907	          0.09149121	          0.07517758	          0.10475170	          0.09620522	          0.04810137	          0.06661786	          0.05730992	          0.06901707	          0.05350903	          0.05871794	          0.03359470	          0.13352403	          0.05425669	          0.04157688	          0.05690417	          0.05919057	          0.04103269	          0.06822661	          0.04203043	          0.02910390	          0.13405548	          0.04281485	          0.04763524	          0.04523809	          0.03965132	          0.04337813	          0.07549792	          0.05821200	          0.03102371	          0.07242752	          0.06042219	
          1.55000000	        -31.93830447	         -1.47232137	        -23.68760345	         -4.66769342	         21.72103553	          1.25818778	        -26.73847044	         33.03866744	         11.28348213	          0.07338758	          0.14912993	          0.09445158	          0.07337663	          0.10864725	          0.09612166	          0.04958029	          0.06689825	          0.05915831	          0.06978682	          0.05238365	          0.06010826	          0.03438376	          0.13198741	          0.05467507	          0.04179350	          0.05637480	          0.05959840	          0.04340246	          0.06897106	          0.04185028	          0.02847790	          0.13646239	          0.04184085	          0.04771463	          0.04523053	          0.04047902	          0.04349815	          0.07627590	          0.05838476	          0.02865958	          0.07202514	          0.05989501	
          1.56000000	        -32.14465193	         -1.38061618	        -23.82499001	         -4.69261728	         22.06539243	          1.08905877	        -26.55243027	         33.59868371	         10.72808613	          0.07354031	          0.15264235	          0.09798424	          0.07133812	          0.11349866	          0.09633134	          0.05138698	          0.06749321	          0.06159567	          0.07118060	          0.05135087	          0.06151152	          0.03553533	          0.13077816	          0.05534986	          0.04238033	          0.05608966	          0.06014570	          0.04582743	          0.06987032	          0.04145896	          0.02751030	          0.13912972	          0.04148440	          0.04806346	          0.04541837	          0.04133223	          0.04324324	          0.07712213	          0.05862492	          0.02665475	          0.07182885	          0.05943162	
          1.57000000	        -32.35572226	         -1.29294888	        -23.96842565	         -4.72012041	         22.40823549	          0.91932350	        -26.36364388	         34.15617023	         10.17974787	          0.07437367	          0.15732448	          0.10212166	          0.06915340	          0.11929986	          0.09693987	          0.05358927	          0.06839538	          0.06454354	          0.07315512	          0.05035841	          0.06285744	          0.03716258	          0.12999406	          0.05624042	          0.04310141	          0.05601691	          0.06076138	          0.04853302	          0.07119690	          0.04094947	          0.02611218	          0.14233383	          0.04202413	          0.04869962	          0.04586715	          0.04220069	          0.04262740	          0.07800009	          0.05884790	          0.02503804	          0.07186430	          0.05894543	
